<?xml version="1.0" encoding="UTF-8" standalone="no" ?>
<!DOCTYPE svg PUBLIC "-//W3C//DTD SVG 1.1//EN" "http://www.w3.org/Graphics/SVG/1.1/DTD/svg11.dtd">
<svg xmlns="http://www.w3.org/2000/svg" xmlns:xlink="http://www.w3.org/1999/xlink" version="1.1" width="1080" height="1080" viewBox="0 0 1080 1080" xml:space="preserve">
<desc>Created with Fabric.js 5.2.4</desc>
<defs>
</defs>
<rect x="0" y="0" width="100%" height="100%" fill="transparent"></rect>
<g transform="matrix(1 0 0 1 540 540)" id="f6cb4953-aa3e-4973-94a9-247b935f920f"  >
<rect style="stroke: none; stroke-width: 1; stroke-dasharray: none; stroke-linecap: butt; stroke-dashoffset: 0; stroke-linejoin: miter; stroke-miterlimit: 4; fill: rgb(255,255,255); fill-rule: nonzero; opacity: 1; visibility: hidden;" vector-effect="non-scaling-stroke"  x="-540" y="-540" rx="0" ry="0" width="1080" height="1080" />
</g>
<g transform="matrix(1 0 0 1 540 540)" id="12cae0d9-ab34-4d70-9316-c6202f5bba59"  >
</g>
<g transform="matrix(1 0 0 1 540 540)" id="e58bea1f-d4cc-427f-9039-d3ef30c44b8f"  >
<path style="stroke: rgb(0,0,0); stroke-width: 0; stroke-dasharray: none; stroke-linecap: butt; stroke-dashoffset: 0; stroke-linejoin: miter; stroke-miterlimit: 4; fill: rgb(241,241,241); fill-rule: nonzero; opacity: 1;" vector-effect="non-scaling-stroke"  transform=" translate(-256, -256)" d="M 512 256 C 512 397.4 397.4 512 256 512 C 114.60000000000002 512 0 397.4 0 256 C 0 114.60000000000002 114.6 0 256 0 C 397.4 0 512 114.6 512 256 z M 188.3 147.1 C 180.70000000000002 151.29999999999998 176 159.4 176 168 L 176 344 C 176 352.7 180.7 360.7 188.3 364.9 C 195.90000000000003 369.09999999999997 205.10000000000002 369 212.60000000000002 364.4 L 356.6 276.4 C 363.70000000000005 272 368.1 264.29999999999995 368.1 255.89999999999998 C 368.1 247.5 363.70000000000005 239.79999999999998 356.6 235.39999999999998 L 212.60000000000002 147.39999999999998 C 205.20000000000002 142.89999999999998 195.90000000000003 142.7 188.3 146.89999999999998 z" stroke-linecap="round" />
</g>
</svg>