<?xml version="1.0" encoding="UTF-8" standalone="no" ?>
<!DOCTYPE svg PUBLIC "-//W3C//DTD SVG 1.1//EN" "http://www.w3.org/Graphics/SVG/1.1/DTD/svg11.dtd">
<svg xmlns="http://www.w3.org/2000/svg" xmlns:xlink="http://www.w3.org/1999/xlink" version="1.1" width="1080" height="1080" viewBox="0 0 1080 1080" xml:space="preserve">
<desc>Created with Fabric.js 5.2.4</desc>
<defs>
</defs>
<rect x="0" y="0" width="100%" height="100%" fill="transparent"></rect>
<g transform="matrix(1 0 0 1 540 540)" id="f6cb4953-aa3e-4973-94a9-247b935f920f"  >
<rect style="stroke: none; stroke-width: 1; stroke-dasharray: none; stroke-linecap: butt; stroke-dashoffset: 0; stroke-linejoin: miter; stroke-miterlimit: 4; fill: rgb(255,255,255); fill-rule: nonzero; opacity: 1; visibility: hidden;" vector-effect="non-scaling-stroke"  x="-540" y="-540" rx="0" ry="0" width="1080" height="1080" />
</g>
<g transform="matrix(1 0 0 1 540 540)" id="12cae0d9-ab34-4d70-9316-c6202f5bba59"  >
</g>
<g transform="matrix(1 0 0 1 540 540)" id="aa19efe3-b905-41fe-a24c-7144c8f63d06"  >
<path style="stroke: rgb(0,0,0); stroke-width: 0; stroke-dasharray: none; stroke-linecap: butt; stroke-dashoffset: 0; stroke-linejoin: miter; stroke-miterlimit: 4; fill: rgb(241,241,241); fill-rule: nonzero; opacity: 1;" vector-effect="non-scaling-stroke"  transform=" translate(-288, -256)" d="M 352 144 C 352 99.8 387.8 64 432 64 C 476.2 64 512 99.8 512 144 L 512 192 C 512 209.7 526.3 224 544 224 C 561.7 224 576 209.7 576 192 L 576 144 C 576 64.5 511.5 0 432 0 C 352.5 0 288 64.5 288 144 L 288 192 L 64 192 C 28.700000000000003 192 0 220.7 0 256 L 0 448 C 0 483.3 28.7 512 64 512 L 384 512 C 419.3 512 448 483.3 448 448 L 448 256 C 448 220.7 419.3 192 384 192 L 352 192 L 352 144 z" stroke-linecap="round" />
</g>
</svg>