<svg xmlns="http://www.w3.org/2000/svg" xmlns:xlink="http://www.w3.org/1999/xlink" version="1.1" width="1080" height="1080" viewBox="0 0 1080 1080" xml:space="preserve">
<desc>Created with Fabric.js 5.2.4</desc>
<defs>
</defs>
<rect x="0" y="0" width="100%" height="100%" fill="transparent"></rect>
<g transform="matrix(1 0 0 1 540 540)" id="f6cb4953-aa3e-4973-94a9-247b935f920f"  >
<rect style="stroke: none; stroke-width: 1; stroke-dasharray: none; stroke-linecap: butt; stroke-dashoffset: 0; stroke-linejoin: miter; stroke-miterlimit: 4; fill: rgb(255,255,255); fill-rule: nonzero; opacity: 1; visibility: hidden;" vector-effect="non-scaling-stroke"  x="-540" y="-540" rx="0" ry="0" width="1080" height="1080" />
</g>
<g transform="matrix(1 0 0 1 540 540)" id="12cae0d9-ab34-4d70-9316-c6202f5bba59"  >
</g>
<g transform="matrix(1 0 0 1 540 540)" id="f32f0b3d-6ca8-4a0f-9729-c3e15e05c29a"  >
<path style="stroke: rgb(0,0,0); stroke-width: 0; stroke-dasharray: none; stroke-linecap: butt; stroke-dashoffset: 0; stroke-linejoin: miter; stroke-miterlimit: 4; fill: rgb(241,241,241); fill-rule: nonzero; opacity: 1;" vector-effect="non-scaling-stroke"  transform=" translate(-224, -256)" d="M 144 144 L 144 192 L 304 192 L 304 144 C 304 99.8 268.2 64 224 64 C 179.8 64 144 99.8 144 144 z M 80 192 L 80 144 C 80 64.5 144.5 0 224 0 C 303.5 0 368 64.5 368 144 L 368 192 L 384 192 C 419.3 192 448 220.7 448 256 L 448 448 C 448 483.3 419.3 512 384 512 L 64 512 C 28.700000000000003 512 0 483.3 0 448 L 0 256 C 0 220.7 28.7 192 64 192 L 80 192 z" stroke-linecap="round" />
</g>
</svg>