<svg xmlns="http://www.w3.org/2000/svg" xmlns:xlink="http://www.w3.org/1999/xlink" version="1.1" width="1080" height="1080" viewBox="0 0 1080 1080" xml:space="preserve">
<desc>Created with Fabric.js 5.2.4</desc>
<defs>
</defs>
<rect x="0" y="0" width="100%" height="100%" fill="transparent"></rect>
<g transform="matrix(1 0 0 1 540 540)" id="f6cb4953-aa3e-4973-94a9-247b935f920f"  >
<rect style="stroke: none; stroke-width: 1; stroke-dasharray: none; stroke-linecap: butt; stroke-dashoffset: 0; stroke-linejoin: miter; stroke-miterlimit: 4; fill: rgb(255,255,255); fill-rule: nonzero; opacity: 1; visibility: hidden;" vector-effect="non-scaling-stroke"  x="-540" y="-540" rx="0" ry="0" width="1080" height="1080" />
</g>
<g transform="matrix(1 0 0 1 540 540)" id="12cae0d9-ab34-4d70-9316-c6202f5bba59"  >
</g>
<g transform="matrix(1.19 0 0 1.19 540 540)" id="15cc8f80-5c0a-4d6a-9e33-abce5ec4303a"  >
<path style="stroke: rgb(0,0,0); stroke-width: 0; stroke-dasharray: none; stroke-linecap: butt; stroke-dashoffset: 0; stroke-linejoin: miter; stroke-miterlimit: 4; fill: rgb(241,241,241); fill-rule: nonzero; opacity: 1;" vector-effect="non-scaling-stroke"  transform=" translate(-144.05, -256)" d="M 41.4 233.4 C 28.9 245.9 28.9 266.2 41.4 278.7 L 201.4 438.7 C 213.9 451.2 234.2 451.2 246.7 438.7 C 259.2 426.2 259.2 405.9 246.7 393.4 L 109.3 256 L 246.6 118.6 C 259.1 106.1 259.1 85.8 246.6 73.3 C 234.09999999999997 60.8 213.8 60.8 201.3 73.3 L 41.30000000000001 233.3 z" stroke-linecap="round" />
</g>
</svg>